cl__1 = 1e+22;
Point(5) = {0, 400, 0, cl__1};
Point(6) = {10000, 400, 0, cl__1};
Point(7) = {10000, 490, 0, cl__1};
Point(8) = {0, 490, 0, cl__1};
Point(13) = {0, 590, 0, cl__1};
Point(14) = {10000, 590, 0, cl__1};
Point(15) = {10000, 680, 0, cl__1};
Point(16) = {0, 680, 0, cl__1};
Point(21) = {0, 780, 0, cl__1};
Point(22) = {10000, 780, 0, cl__1};
Point(23) = {10000, 870, 0, cl__1};
Point(24) = {0, 870, 0, cl__1};
Point(29) = {0, 400, 20, cl__1};
Point(30) = {10000, 400, 20, cl__1};
Point(31) = {10000, 490, 20, cl__1};
Point(32) = {0, 490, 20, cl__1};
Point(33) = {0, 780, 20, cl__1};
Point(34) = {10000, 780, 20, cl__1};
Point(35) = {10000, 870, 20, cl__1};
Point(36) = {0, 870, 20, cl__1};
Point(37) = {0, 590, 20, cl__1};
Point(38) = {10000, 590, 20, cl__1};
Point(39) = {10000, 680, 20, cl__1};
Point(40) = {0, 680, 20, cl__1};
Point(41) = {0, 0, 0, cl__1};
Point(42) = {0, 0, -25, cl__1};
Point(43) = {0, 1270, 0, cl__1};
Point(44) = {0, 1270, -25, cl__1};
Point(45) = {10000, 0, 0, cl__1};
Point(46) = {10000, 0, -25, cl__1};
Point(47) = {10000, 1270, 0, cl__1};
Point(48) = {10000, 1270, -25, cl__1};
Point(49) = {-100, -200, 400, cl__1};
Point(50) = {-100, -200, -400, cl__1};
Point(51) = {-100, 1470, 400, cl__1};
Point(52) = {-100, 1470, -400, cl__1};
Point(53) = {10100, -200, 400, cl__1};
Point(54) = {10100, -200, -400, cl__1};
Point(55) = {10100, 1470, 400, cl__1};
Point(56) = {10100, 1470, -400, cl__1};
Point(57) = {50, 490, 0, cl__1};
Point(58) = {50, 590, 0, cl__1};
Point(59) = {9950, 590, 0, cl__1};
Point(60) = {9950, 490, 0, cl__1};
Point(61) = {50, 680, 0, cl__1};
Point(62) = {50, 780, 0, cl__1};
Point(63) = {9950, 780, 0, cl__1};
Point(64) = {9950, 680, 0, cl__1};
Point(65) = {0, 0, 0, cl__1};
Point(66) = {10000, 0, 0, cl__1};
Point(67) = {10000, 400, 0, cl__1};
Point(68) = {0, 400, 0, cl__1};
Point(69) = {10000, 490, 0, cl__1};
Point(70) = {0, 490, 0, cl__1};
Point(71) = {0, 590, 0, cl__1};
Point(72) = {10000, 590, 0, cl__1};
Point(73) = {10000, 680, 0, cl__1};
Point(74) = {0, 680, 0, cl__1};
Point(75) = {0, 780, 0, cl__1};
Point(76) = {10000, 780, 0, cl__1};
Point(77) = {10000, 870, 0, cl__1};
Point(78) = {0, 870, 0, cl__1};
Point(79) = {10000, 1270, 0, cl__1};
Point(80) = {0, 1270, 0, cl__1};
Line(5) = {5, 6};
Line(6) = {6, 7};
Line(7) = {7, 8};
Line(8) = {8, 5};
Line(13) = {13, 14};
Line(14) = {14, 15};
Line(15) = {15, 16};
Line(16) = {16, 13};
Line(21) = {21, 22};
Line(22) = {22, 23};
Line(23) = {23, 24};
Line(24) = {24, 21};
Line(29) = {5, 29};
Line(30) = {6, 30};
Line(31) = {29, 30};
Line(32) = {7, 31};
Line(33) = {30, 31};
Line(34) = {8, 32};
Line(35) = {31, 32};
Line(36) = {32, 29};
Line(37) = {21, 33};
Line(38) = {22, 34};
Line(39) = {33, 34};
Line(40) = {23, 35};
Line(41) = {34, 35};
Line(42) = {24, 36};
Line(43) = {35, 36};
Line(44) = {36, 33};
Line(45) = {13, 37};
Line(46) = {14, 38};
Line(47) = {37, 38};
Line(48) = {15, 39};
Line(49) = {38, 39};
Line(50) = {16, 40};
Line(51) = {39, 40};
Line(52) = {40, 37};
Line(53) = {42, 41};
Line(55) = {44, 43};
Line(56) = {42, 44};
Line(57) = {46, 45};
Line(59) = {48, 47};
Line(60) = {46, 48};
Line(61) = {42, 46};
Line(63) = {44, 48};
Line(65) = {50, 49};
Line(66) = {49, 51};
Line(67) = {52, 51};
Line(68) = {50, 52};
Line(69) = {54, 53};
Line(70) = {53, 55};
Line(71) = {56, 55};
Line(72) = {54, 56};
Line(73) = {50, 54};
Line(74) = {49, 53};
Line(75) = {52, 56};
Line(76) = {51, 55};
Line(77) = {57, 58};
Line(78) = {59, 58};
Line(79) = {59, 60};
Line(80) = {60, 57};
Line(81) = {61, 62};
Line(82) = {63, 62};
Line(83) = {63, 64};
Line(84) = {64, 61};
Line(85) = {65, 66};
Line(86) = {66, 67};
Line(87) = {67, 68};
Line(88) = {68, 65};
Line(89) = {67, 69};
Line(90) = {69, 60};
Line(91) = {57, 70};
Line(92) = {70, 68};
Line(93) = {71, 70};
Line(94) = {58, 71};
Line(95) = {72, 59};
Line(96) = {69, 72};
Line(97) = {72, 73};
Line(98) = {73, 64};
Line(99) = {61, 74};
Line(100) = {74, 71};
Line(101) = {75, 74};
Line(102) = {62, 75};
Line(103) = {76, 63};
Line(104) = {73, 76};
Line(105) = {76, 77};
Line(106) = {77, 78};
Line(107) = {78, 75};
Line(108) = {77, 79};
Line(109) = {79, 80};
Line(110) = {80, 78};
Line(111) = {68, 29};
Line(112) = {67, 30};
Line(113) = {69, 31};
Line(114) = {70, 32};
Line(115) = {75, 33};
Line(116) = {76, 34};
Line(117) = {77, 35};
Line(118) = {78, 36};
Line(119) = {71, 37};
Line(120) = {72, 38};
Line(121) = {73, 39};
Line(122) = {74, 40};
Line(123) = {42, 65};
Line(124) = {44, 80};
Line(125) = {46, 66};
Line(126) = {48, 79};
Curve Loop(1) = {85, 86, 87, 88};
Plane Surface(1) = {1};
Curve Loop(2) = {-87, 89, 90, 80, 91, 92};
Plane Surface(2) = {2};
Curve Loop(4) = {-94, -78, -95, 97, 98, 84, 99, 100};
Plane Surface(4) = {4};
Curve Loop(6) = {-102, -82, -103, 105, 106, 107};
Plane Surface(6) = {6};
Curve Loop(7) = {-106, 108, 109, 110};
Plane Surface(7) = {7};
Curve Loop(8) = {111, 31, -112, 87};
Plane Surface(8) = {8};
Curve Loop(9) = {112, 33, -113, -89};
Plane Surface(9) = {9};
Curve Loop(10) = {113, 35, -114, -91, -80, -90};
Plane Surface(10) = {10};
Curve Loop(11) = {114, 36, -111, -92};
Plane Surface(11) = {11};
Curve Loop(12) = {31, 33, 35, 36};
Plane Surface(12) = {12};
Curve Loop(13) = {115, 39, -116, 103, 82, 102};
Plane Surface(13) = {13};
Curve Loop(14) = {116, 41, -117, -105};
Plane Surface(14) = {14};
Curve Loop(15) = {117, 43, -118, -106};
Plane Surface(15) = {15};
Curve Loop(16) = {118, 44, -115, -107};
Plane Surface(16) = {16};
Curve Loop(17) = {39, 41, 43, 44};
Plane Surface(17) = {17};
Curve Loop(18) = {119, 47, -120, 95, 78, 94};
Plane Surface(18) = {18};
Curve Loop(19) = {120, 49, -121, -97};
Plane Surface(19) = {19};
Curve Loop(20) = {121, 51, -122, -99, -84, -98};
Plane Surface(20) = {20};
Curve Loop(21) = {122, 52, -119, -100};
Plane Surface(21) = {21};
Curve Loop(22) = {47, 49, 51, 52};
Plane Surface(22) = {22};
Curve Loop(23) = {-123, 56, 124, 110, 107, 101, 100, 93, 92, 88};
Plane Surface(23) = {23};
Curve Loop(24) = {-125, 60, 126, -108, -105, -104, -97, -96, -89, -86};
Plane Surface(24) = {24};
Curve Loop(25) = {-61, 123, 85, -125};
Plane Surface(25) = {25};
Curve Loop(26) = {-63, 124, -109, -126};
Plane Surface(26) = {26};
Curve Loop(27) = {-56, 61, 60, -63};
Plane Surface(27) = {27};
Curve Loop(29) = {-65, 68, 67, -66};
Plane Surface(29) = {29};
Curve Loop(30) = {-69, 72, 71, -70};
Plane Surface(30) = {30};
Curve Loop(31) = {-73, 65, 74, -69};
Plane Surface(31) = {31};
Curve Loop(32) = {-75, 67, 76, -71};
Plane Surface(32) = {32};
Curve Loop(33) = {-68, 73, 72, -75};
Plane Surface(33) = {33};
Curve Loop(34) = {-66, 74, 70, -76};
Plane Surface(34) = {34};
Curve Loop(35) = {-91, 77, 94, 93};
Plane Surface(35) = {35};
Curve Loop(36) = {79, -90, 96, 95};
Plane Surface(36) = {36};
Curve Loop(37) = {-99, 81, 102, 101};
Plane Surface(37) = {37};
Curve Loop(38) = {83, -98, 104, 103};
Plane Surface(38) = {38};
Curve Loop(39) = {-77, -80, -79, 78};
Plane Surface(39) = {39};
Curve Loop(40) = {-81, -84, -83, 82};
Plane Surface(40) = {40};
Surface Loop(1) = {8, 9, 10, 11, 2, 12};
Volume(1) = {1};
Surface Loop(2) = {13, 14, 15, 16, 6, 17};
Volume(2) = {2};
Surface Loop(3) = {18, 19, 20, 21, 4, 22};
Volume(3) = {3};
Surface Loop(4) = {23, 24, 25, 26, 27, 1, 2, 35, 4, 39, 36, 37, 6, 40, 38, 7};
Volume(4) = {4};
Surface Loop(5) = {29, 31, 34, 32, 33, 30, 1, 25, 24, 8, 23, 27, 9, 36, 19, 38, 14, 7, 26, 11, 12, 35, 21, 37, 16, 10, 39, 18, 20, 22, 40, 13, 15, 17};
Volume(5) = {5};
Physical Surface("farfield") = {29, 30, 31, 32, 33, 34};
Physical Surface("port1a") = {35};
Physical Surface("port2a") = {36};
Physical Surface("port1b") = {37};
Physical Surface("port2b") = {38};
Physical Surface("trace") = {2, 4, 6};
Physical Surface("gap") = {1, 7, 39, 40};
Physical Volume("air") = {5};
Physical Volume("kapton") = {4};
Physical Volume("metal") = {1, 2, 3};
Field[1] = Distance;
Field[1].CurvesList = {87, 89, 90, 80, 91, 92, 94, 78, 95, 97, 98, 84, 99, 100, 102, 82, 103, 105, 106, 107};
Field[1].EdgesList = {87, 89, 90, 80, 91, 92, 94, 78, 95, 97, 98, 84, 99, 100, 102, 82, 103, 105, 106, 107};
Field[1].FacesList = {2, 4, 6};
Field[1].FieldX = 0;
Field[1].FieldY = 0;
Field[1].FieldZ = 0;
Field[1].NNodesByEdge = 1000;
Field[1].NodesList = {57, 60, 67, 68, 69, 70, 58, 59, 61, 64, 71, 72, 73, 74, 62, 63, 75, 76, 77, 78};
Field[1].NumPointsPerCurve = 1000;
Field[1].PointsList = {57, 60, 67, 68, 69, 70, 58, 59, 61, 64, 71, 72, 73, 74, 62, 63, 75, 76, 77, 78};
Field[1].Sampling = 1000;
Field[1].SurfacesList = {2, 4, 6};
Field[2] = Threshold;
Field[2].DistMax = 270;
Field[2].DistMin = 90;
Field[2].IField = 1;
Field[2].InField = 1;
Field[2].LcMax = 800;
Field[2].LcMin = 30;
Field[2].Sigmoid = 0;
Field[2].SizeMax = 800;
Field[2].SizeMin = 30;
Field[2].StopAtDistMax = 0;
Field[101] = MinAniso;
Field[101].FieldsList = {2};
Background Field = 101;
